<svg width="122" height="43" viewBox="0 0 122 43" fill="none" xmlns="http://www.w3.org/2000/svg">
<path d="M14.2028 32.9284C14.2028 34.1975 13.7168 35.237 12.7312 36.0606C12.0157 36.6546 11.0841 36.9921 10.1526 37.0191C8.93752 37.0461 7.91146 36.6546 7.07441 35.8311C6.26436 35.048 5.87284 34.0895 5.87284 32.9284V23.7884C5.87284 22.1683 4.54976 20.8587 2.92967 20.8587C1.30958 20.8587 0 22.1683 0 23.7884V32.9284C0 34.7375 0.459027 36.3981 1.35008 37.9372C2.25463 39.4628 3.4562 40.6778 4.98179 41.5554C6.49388 42.4464 8.16797 42.8785 10.0041 42.8785C11.8402 42.8785 13.4738 42.4464 15.0129 41.5554C16.5385 40.6778 17.767 39.4628 18.6851 37.9372C19.6031 36.3981 20.0622 34.7375 20.0622 32.9284V20.1161H14.2028V32.9284ZM19.2116 2.1331C18.6716 1.45806 17.9425 1.05304 17.1325 1.05304C15.5124 1.05304 14.2028 2.68663 14.2028 4.71175V21.9118H20.0622V4.71175C20.0622 3.69919 19.7381 2.79464 19.2116 2.1331Z" fill="#5A75BC"/>
<path d="M29.7018 41.1909C27.6496 39.9893 26.0295 38.3557 24.8145 36.3036C23.6129 34.2515 23.0054 31.9969 23.0054 29.5532C23.0054 27.1096 23.6129 24.8549 24.8145 22.8028C26.016 20.7507 27.6496 19.1171 29.7018 17.8885C31.7539 16.66 34.0085 16.0524 36.4522 16.0524C38.8958 16.0524 41.1099 16.66 43.1755 17.8885C45.2412 19.1171 46.8883 20.7642 48.0898 22.8298C49.2914 24.8954 49.8989 27.1366 49.8989 29.5532C49.8989 31.9699 49.2914 34.2515 48.0898 36.3036C46.8883 38.3557 45.2412 39.9893 43.1755 41.1909C41.1099 42.3925 38.8688 43 36.4522 43C34.0355 43 31.7404 42.3925 29.7018 41.1909ZM40.2729 36.1281C41.4474 35.4531 42.3655 34.535 43.027 33.3739C43.7021 32.1994 44.0396 30.9303 44.0396 29.5532C44.0396 28.1761 43.7021 26.8936 43.027 25.7325C42.352 24.5579 41.4204 23.6399 40.2324 22.9513C39.0443 22.2628 37.7617 21.9118 36.3846 21.9118C35.0076 21.9118 33.7925 22.2628 32.6449 22.9513C31.4974 23.6399 30.5793 24.5714 29.8908 25.7325C29.2022 26.9071 28.8512 28.1761 28.8512 29.5532C28.8512 30.9303 29.1887 32.2534 29.8638 33.4009C30.5388 34.5485 31.4434 35.4666 32.5909 36.1281C33.7385 36.8031 35.0076 37.1407 36.3846 37.1407C37.7617 37.1407 39.0983 36.8031 40.2729 36.1281Z" fill="#5A75BC"/>
<path d="M52.8423 42.487V3.09168C52.8423 1.37708 54.1519 0 55.772 0C57.3921 0 58.7016 1.39058 58.7016 3.09168V42.4735H52.8423V42.487ZM55.718 36.6141H59.2282C60.5647 36.6141 61.7933 36.2901 62.9004 35.6421C64.0074 34.994 64.8985 34.1165 65.5465 33.0229C66.1946 31.9294 66.5186 30.7278 66.5186 29.4317C66.5186 28.1356 66.1946 26.9206 65.5465 25.8135C64.8985 24.7064 64.0074 23.8154 62.9004 23.1673C61.7933 22.5193 60.5647 22.1953 59.2282 22.1953H55.772V16.336H59.2282C61.6448 16.336 63.8454 16.93 65.8435 18.1181C67.8282 19.3061 69.4077 20.8857 70.5958 22.8838C71.7839 24.8819 72.3914 27.1366 72.3914 29.4452C72.3914 31.7538 71.7974 34.0085 70.6093 35.9931C69.4212 37.9912 67.8282 39.5708 65.8435 40.7319C63.8454 41.9064 61.6448 42.487 59.2282 42.487H55.718V36.6276V36.6141Z" fill="#5A75BC"/>
<path d="M87.7819 33.4279C86.1753 33.4279 84.8793 32.1319 84.8793 30.5253V25.665C84.8793 24.0179 84.4337 23.0593 83.5562 22.7893C82.6786 22.5193 81.8146 22.9513 80.964 24.0854C80.127 25.2195 79.695 26.7586 79.695 28.7162C79.695 30.0528 80.046 31.3083 80.748 32.5099C81.3421 33.5225 82.1791 34.3865 83.1782 34.994C84.4202 35.7501 85.7838 36.1281 87.2824 36.1281C88.619 36.1281 89.8745 35.8041 91.0221 35.1561C92.1697 34.508 93.1012 33.6035 93.8168 32.4559C94.5323 31.3083 94.8833 30.0798 94.8833 28.7702C94.8428 27.7036 94.6403 26.6911 94.2488 25.746C94.1543 25.5165 94.0463 25.287 93.9383 25.071C93.3308 23.9099 93.4523 22.4923 94.3838 21.5743L94.4513 21.5068C95.8014 20.1567 98.11 20.4537 99.0146 22.1413C99.2441 22.5733 99.4601 23.0188 99.6491 23.4914C100.338 25.179 100.689 26.9476 100.689 28.7837C100.689 31.2003 100.081 33.4279 98.8796 35.4531C97.678 37.4782 96.0444 39.0848 93.9923 40.2593C91.9402 41.4339 89.7125 42.0145 87.2959 42.0145C84.8793 42.0145 82.6381 41.4204 80.5725 40.2323C78.5069 39.0443 76.8598 37.4377 75.6582 35.3991C74.4567 33.3739 73.8491 31.1463 73.8491 28.7297C73.8491 24.3959 75.2532 21.1827 78.0479 19.0766C80.8425 16.9705 83.6507 16.525 86.4724 17.7535C89.294 18.9821 90.6981 21.6283 90.6981 25.692V30.5523C90.6981 32.1589 89.402 33.455 87.7954 33.455L87.7819 33.4279Z" fill="#5A75BC"/>
<path d="M118.496 42.487H115.053C112.637 42.487 110.423 41.9064 108.411 40.7319C106.399 39.5573 104.82 37.9777 103.672 35.9931C102.552 34.049 101.971 31.9159 101.944 29.5937C101.917 27.2716 102.525 24.9359 103.699 22.9108C104.874 20.8857 106.453 19.3061 108.438 18.1046C110.436 16.9165 112.637 16.3224 115.053 16.3224H118.496V22.1818H115.053C113.717 22.1818 112.488 22.5058 111.368 23.1538C110.261 23.8019 109.383 24.6929 108.749 25.8C108.114 26.9071 107.804 28.1221 107.804 29.4182C107.804 30.7143 108.114 31.9294 108.749 33.0364C109.383 34.1435 110.247 35.021 111.368 35.6556C112.475 36.2901 113.703 36.6006 115.053 36.6006H118.496V42.46V42.487ZM115.621 42.487V11.8132C115.621 10.4766 116.93 9.39655 118.55 9.39655C120.17 9.39655 121.48 10.4766 121.48 11.8132V42.487H115.621Z" fill="#5A75BC"/>
<path d="M68.8002 4.94126L75.2806 8.10045C77.6162 9.23451 78.5478 12.0697 77.3462 14.3648L62.3604 7.07439C63.5754 4.73875 66.4376 3.7937 68.8002 4.95476V4.94126Z" fill="#5A75BC"/>
</svg>
