<svg width="28" height="20" viewBox="0 0 28 20" fill="none" xmlns="http://www.w3.org/2000/svg">
<g clip-path="url(#clip0_38_1004)">
<path d="M24.2984 0.280273H2.91756C1.30637 0.280273 0 1.58664 0 3.19783V16.8058C0 18.417 1.30637 19.7234 2.91756 19.7234H24.3016C25.9127 19.7234 27.2191 18.417 27.2191 16.8058V3.19783C27.2191 1.58664 25.9127 0.280273 24.3016 0.280273H24.2984ZM23.6764 2.22427L13.6049 10.0003L3.53963 2.22427H23.6795H23.6764ZM24.2984 17.7763H2.91756C2.37946 17.7763 1.94711 17.3408 1.94711 16.8058V3.44977L12.4354 11.5461C13.129 12.0749 14.0932 12.0749 14.7868 11.5461L25.2751 3.44977V16.8058C25.2751 17.064 25.1725 17.3097 24.9921 17.4932C24.8085 17.6767 24.5628 17.7763 24.3047 17.7763H24.2984Z" fill="white"/>
</g>
<defs>
<clipPath id="clip0_38_1004">
<rect width="27.216" height="19.44" fill="white" transform="translate(0 0.279297)"/>
</clipPath>
</defs>
</svg>
