<svg width="676" height="517" viewBox="0 0 676 517" fill="none" xmlns="http://www.w3.org/2000/svg">
<rect x="-0.5" y="0.5" width="261" height="99" rx="49.5" transform="matrix(-1 0 0 1 675 142)" stroke="black"/>
<rect x="-0.5" y="0.5" width="203" height="93" rx="46.5" transform="matrix(-1 0 0 1 219 276)" stroke="black"/>
<path d="M269.872 247.463L112.518 248.563C55.849 249.049 9.94801 202.513 10.9554 145.813L374.689 142.971C373.814 200.597 327.2 246.98 269.74 247.199L269.872 247.463Z" fill="#04A99F"/>
<path d="M359.858 269.205L517.216 269.493C573.887 269.508 619.376 316.447 617.868 373.136L254.123 372.769C255.507 315.152 302.529 269.183 359.988 269.471L359.858 269.205Z" fill="#FFA41B"/>
</svg>
