<svg width="22" height="22" viewBox="0 0 22 22" fill="none" xmlns="http://www.w3.org/2000/svg">
<path d="M17.5782 4.97552C17.5782 5.66 17.0262 6.21201 16.3417 6.21201C15.6572 6.21201 15.1052 5.65448 15.1052 4.97552C15.1052 4.29655 15.6627 3.73902 16.3417 3.73902C17.0207 3.73902 17.5782 4.29655 17.5782 4.97552ZM16.0381 10.5287C16.0381 13.3991 13.7031 15.7341 10.8327 15.7341C7.96225 15.7341 5.62728 13.3991 5.62728 10.5287C5.62728 7.65826 7.96225 5.32328 10.8327 5.32328C13.7031 5.32328 16.0381 7.65826 16.0381 10.5287ZM14.1668 10.5287C14.1668 8.69051 12.6709 7.19457 10.8327 7.19457C8.9945 7.19457 7.49858 8.69051 7.49858 10.5287C7.49858 12.3669 8.9945 13.8628 10.8327 13.8628C12.6709 13.8628 14.1668 12.3669 14.1668 10.5287ZM21.3649 6.35001C21.3649 2.84478 18.5221 0.00195312 15.0169 0.00195312H6.35593C2.8507 0.00195312 0.00787354 2.84478 0.00787354 6.35001V15.011C0.00787354 18.5162 2.8507 21.359 6.35593 21.359H15.0169C18.5221 21.359 21.3649 18.5162 21.3649 15.011V6.35001ZM19.2839 14.9171C19.2839 17.3239 17.3298 19.278 14.923 19.278H6.44976C4.04302 19.278 2.08893 17.3239 2.08893 14.9171V6.44385C2.08893 4.03711 4.04302 2.08301 6.44976 2.08301H14.923C17.3298 2.08301 19.2839 4.03711 19.2839 6.44385V14.9171Z" fill="white"/>
</svg>
