<svg width="20" height="20" viewBox="0 0 20 20" fill="none" xmlns="http://www.w3.org/2000/svg">
<path d="M0.465155 6.37939H4.42303V19.0865H0.465155V6.37939ZM2.44133 0.0644531C3.70542 0.0644531 4.73215 1.09119 4.73215 2.35528C4.73215 3.61937 3.70542 4.64609 2.44133 4.64609C1.17724 4.64609 0.150513 3.61937 0.150513 2.35528C0.150513 1.09119 1.17724 0.0644531 2.44133 0.0644531ZM6.90153 19.0921H10.8484V12.8047C10.8484 11.1487 11.163 9.54238 13.2165 9.54238C15.2699 9.54238 15.2699 11.4358 15.2699 12.9151V19.0921H19.2168V12.1202C19.2168 8.69781 18.4771 6.06475 14.4806 6.06475C12.5541 6.06475 11.2679 7.11908 10.738 8.11821H10.6883V6.37939H6.89601V19.0865L6.90153 19.0921Z" fill="white"/>
</svg>
