<svg width="122" height="43" viewBox="0 0 122 43" fill="none" xmlns="http://www.w3.org/2000/svg">
<path d="M14.2028 32.9281C14.2028 34.1972 13.7168 35.2367 12.7312 36.0603C12.0157 36.6543 11.0841 36.9918 10.1526 37.0188C8.93752 37.0458 7.91146 36.6543 7.07441 35.8308C6.26436 35.0477 5.87284 34.0892 5.87284 32.9281V23.7881C5.87284 22.168 4.54976 20.8584 2.92967 20.8584C1.30958 20.8584 0 22.168 0 23.7881V32.9281C0 34.7372 0.459027 36.3978 1.35008 37.9369C2.25463 39.4625 3.4562 40.6775 4.98179 41.5551C6.49388 42.4461 8.16797 42.8782 10.0041 42.8782C11.8402 42.8782 13.4738 42.4461 15.0129 41.5551C16.5385 40.6775 17.767 39.4625 18.6851 37.9369C19.6031 36.3978 20.0622 34.7372 20.0622 32.9281V20.1158H14.2028V32.9281ZM19.2116 2.1328C18.6716 1.45776 17.9425 1.05273 17.1325 1.05273C15.5124 1.05273 14.2028 2.68633 14.2028 4.71145V21.9114H20.0622V4.71145C20.0622 3.69889 19.7381 2.79434 19.2116 2.1328Z" fill="#FFA41B"/>
<path d="M29.7018 41.1912C27.6496 39.9896 26.0295 38.356 24.8145 36.3039C23.6129 34.2518 23.0054 31.9972 23.0054 29.5535C23.0054 27.1099 23.6129 24.8552 24.8145 22.8031C26.016 20.751 27.6496 19.1174 29.7018 17.8888C31.7539 16.6603 34.0085 16.0527 36.4522 16.0527C38.8958 16.0527 41.1099 16.6603 43.1755 17.8888C45.2412 19.1174 46.8883 20.7645 48.0898 22.8301C49.2914 24.8957 49.8989 27.1369 49.8989 29.5535C49.8989 31.9702 49.2914 34.2518 48.0898 36.3039C46.8883 38.356 45.2412 39.9896 43.1755 41.1912C41.1099 42.3928 38.8688 43.0003 36.4522 43.0003C34.0355 43.0003 31.7404 42.3928 29.7018 41.1912ZM40.2729 36.1284C41.4474 35.4534 42.3655 34.5353 43.027 33.3742C43.7021 32.1997 44.0396 30.9306 44.0396 29.5535C44.0396 28.1764 43.7021 26.8939 43.027 25.7328C42.352 24.5582 41.4204 23.6402 40.2324 22.9516C39.0443 22.2631 37.7617 21.9121 36.3846 21.9121C35.0076 21.9121 33.7925 22.2631 32.6449 22.9516C31.4974 23.6402 30.5793 24.5717 29.8908 25.7328C29.2022 26.9074 28.8512 28.1764 28.8512 29.5535C28.8512 30.9306 29.1887 32.2537 29.8638 33.4012C30.5388 34.5488 31.4434 35.4669 32.5909 36.1284C33.7385 36.8034 35.0076 37.141 36.3846 37.141C37.7617 37.141 39.0983 36.8034 40.2729 36.1284Z" fill="#FFA41B"/>
<path d="M52.8421 42.487V3.09168C52.8421 1.37708 54.1517 0 55.7718 0C57.3919 0 58.7014 1.39058 58.7014 3.09168V42.4735H52.8421V42.487ZM55.7178 36.6141H59.228C60.5646 36.6141 61.7931 36.2901 62.9002 35.6421C64.0073 34.994 64.8983 34.1165 65.5463 33.0229C66.1944 31.9294 66.5184 30.7278 66.5184 29.4317C66.5184 28.1356 66.1944 26.9206 65.5463 25.8135C64.8983 24.7064 64.0073 23.8154 62.9002 23.1673C61.7931 22.5193 60.5646 22.1953 59.228 22.1953H55.7718V16.336H59.228C61.6446 16.336 63.8452 16.93 65.8434 18.1181C67.828 19.3061 69.4076 20.8857 70.5956 22.8838C71.7837 24.8819 72.3912 27.1366 72.3912 29.4452C72.3912 31.7538 71.7972 34.0085 70.6091 35.9931C69.4211 37.9912 67.828 39.5708 65.8434 40.7319C63.8452 41.9064 61.6446 42.487 59.228 42.487H55.7178V36.6276V36.6141Z" fill="#FFA41B"/>
<path d="M87.7822 33.4275C86.1756 33.4275 84.8795 32.1314 84.8795 30.5248V25.6645C84.8795 24.0174 84.434 23.0589 83.5564 22.7888C82.6789 22.5188 81.8148 22.9509 80.9643 24.0849C80.1272 25.219 79.6952 26.7581 79.6952 28.7157C79.6952 30.0523 80.0462 31.3078 80.7483 32.5094C81.3423 33.522 82.1793 34.386 83.1784 34.9936C84.4205 35.7496 85.7841 36.1276 87.2826 36.1276C88.6192 36.1276 89.8748 35.8036 91.0224 35.1556C92.1699 34.5075 93.1015 33.603 93.817 32.4554C94.5326 31.3078 94.8836 30.0793 94.8836 28.7697C94.8431 27.7031 94.6406 26.6906 94.249 25.7455C94.1545 25.516 94.0465 25.2865 93.9385 25.0705C93.331 23.9094 93.4525 22.4918 94.3841 21.5738L94.4516 21.5063C95.8016 20.1562 98.1103 20.4532 99.0148 22.1408C99.2443 22.5728 99.4604 23.0184 99.6494 23.4909C100.338 25.1785 100.689 26.9471 100.689 28.7832C100.689 31.1998 100.081 33.4275 98.8798 35.4526C97.6782 37.4777 96.0447 39.0843 93.9925 40.2589C91.9404 41.4334 89.7128 42.014 87.2962 42.014C84.8795 42.014 82.6384 41.4199 80.5728 40.2319C78.5071 39.0438 76.86 37.4372 75.6585 35.3986C74.4569 33.3735 73.8494 31.1458 73.8494 28.7292C73.8494 24.3954 75.2534 21.1822 78.0481 19.0761C80.8428 16.97 83.6509 16.5245 86.4726 17.753C89.2943 18.9816 90.6983 21.6278 90.6983 25.6915V30.5518C90.6983 32.1584 89.4023 33.4545 87.7957 33.4545L87.7822 33.4275Z" fill="#FFA41B"/>
<path d="M118.496 42.4869H115.054C112.637 42.4869 110.423 41.9064 108.411 40.7318C106.4 39.5572 104.82 37.9776 103.673 35.993C102.552 34.0489 101.971 31.9158 101.944 29.5937C101.917 27.2715 102.525 24.9359 103.7 22.9108C104.874 20.8857 106.454 19.3061 108.438 18.1045C110.436 16.9164 112.637 16.3224 115.054 16.3224H118.496V22.1817H115.054C113.717 22.1817 112.489 22.5057 111.368 23.1538C110.261 23.8018 109.383 24.6929 108.749 25.7999C108.114 26.907 107.804 28.1221 107.804 29.4181C107.804 30.7142 108.114 31.9293 108.749 33.0364C109.383 34.1434 110.247 35.021 111.368 35.6555C112.475 36.29 113.704 36.6006 115.054 36.6006H118.496V42.4599V42.4869ZM115.621 42.4869V11.8131C115.621 10.4765 116.93 9.39648 118.55 9.39648C120.17 9.39648 121.48 10.4765 121.48 11.8131V42.4869H115.621Z" fill="#FFA41B"/>
<path d="M68.8 4.94169L75.2804 8.10087C77.616 9.23494 78.5476 12.0701 77.346 14.3652L62.3601 7.07481C63.5752 4.73918 66.4373 3.79412 68.8 4.95519V4.94169Z" fill="#FFA41B"/>
</svg>
