<svg width="122" height="43" viewBox="0 0 122 43" fill="none" xmlns="http://www.w3.org/2000/svg">
<path d="M14.2028 32.9286C14.2028 34.1976 13.7168 35.2372 12.7312 36.0608C12.0157 36.6548 11.0841 36.9923 10.1526 37.0193C8.93752 37.0463 7.91146 36.6548 7.07441 35.8312C6.26436 35.0482 5.87284 34.0896 5.87284 32.9286V23.7885C5.87284 22.1684 4.54976 20.8589 2.92967 20.8589C1.30958 20.8589 0 22.1684 0 23.7885V32.9286C0 34.7377 0.459027 36.3983 1.35008 37.9374C2.25463 39.463 3.4562 40.678 4.98179 41.5556C6.49388 42.4466 8.16797 42.8787 10.0041 42.8787C11.8402 42.8787 13.4738 42.4466 15.0129 41.5556C16.5385 40.678 17.767 39.463 18.6851 37.9374C19.6031 36.3983 20.0622 34.7377 20.0622 32.9286V20.1163H14.2028V32.9286ZM19.2116 2.13329C18.6716 1.45825 17.9425 1.05322 17.1325 1.05322C15.5124 1.05322 14.2028 2.68682 14.2028 4.71194V21.9119H20.0622V4.71194C20.0622 3.69938 19.7381 2.79482 19.2116 2.13329Z" fill="black"/>
<path d="M29.7018 41.1907C27.6496 39.9891 26.0295 38.3555 24.8145 36.3034C23.6129 34.2513 23.0054 31.9967 23.0054 29.553C23.0054 27.1094 23.6129 24.8548 24.8145 22.8026C26.016 20.7505 27.6496 19.1169 29.7018 17.8884C31.7539 16.6598 34.0085 16.0522 36.4522 16.0522C38.8958 16.0522 41.1099 16.6598 43.1755 17.8884C45.2412 19.1169 46.8883 20.764 48.0898 22.8296C49.2914 24.8953 49.8989 27.1364 49.8989 29.553C49.8989 31.9697 49.2914 34.2513 48.0898 36.3034C46.8883 38.3555 45.2412 39.9891 43.1755 41.1907C41.1099 42.3923 38.8688 42.9998 36.4522 42.9998C34.0355 42.9998 31.7404 42.3923 29.7018 41.1907ZM40.2729 36.1279C41.4474 35.4529 42.3655 34.5348 43.027 33.3738C43.7021 32.1992 44.0396 30.9301 44.0396 29.553C44.0396 28.1759 43.7021 26.8934 43.027 25.7323C42.352 24.5577 41.4204 23.6397 40.2324 22.9511C39.0443 22.2626 37.7617 21.9116 36.3846 21.9116C35.0076 21.9116 33.7925 22.2626 32.6449 22.9511C31.4974 23.6397 30.5793 24.5712 29.8908 25.7323C29.2022 26.9069 28.8512 28.1759 28.8512 29.553C28.8512 30.9301 29.1887 32.2532 29.8638 33.4008C30.5388 34.5483 31.4434 35.4664 32.5909 36.1279C33.7385 36.803 35.0076 37.1405 36.3846 37.1405C37.7617 37.1405 39.0983 36.803 40.2729 36.1279Z" fill="black"/>
<path d="M52.842 42.487V3.09168C52.842 1.37708 54.1516 0 55.7717 0C57.3918 0 58.7014 1.39058 58.7014 3.09168V42.4735H52.842V42.487ZM55.7177 36.6141H59.2279C60.5645 36.6141 61.7931 36.2901 62.9001 35.6421C64.0072 34.994 64.8982 34.1165 65.5463 33.0229C66.1943 31.9294 66.5183 30.7278 66.5183 29.4317C66.5183 28.1356 66.1943 26.9206 65.5463 25.8135C64.8982 24.7064 64.0072 23.8154 62.9001 23.1673C61.7931 22.5193 60.5645 22.1953 59.2279 22.1953H55.7717V16.336H59.2279C61.6446 16.336 63.8452 16.93 65.8433 18.1181C67.8279 19.3061 69.4075 20.8857 70.5956 22.8838C71.7836 24.8819 72.3912 27.1366 72.3912 29.4452C72.3912 31.7538 71.7971 34.0085 70.6091 35.9931C69.421 37.9912 67.8279 39.5708 65.8433 40.7319C63.8452 41.9064 61.6446 42.487 59.2279 42.487H55.7177V36.6276V36.6141Z" fill="black"/>
<path d="M87.7822 33.4279C86.1756 33.4279 84.8795 32.1319 84.8795 30.5253V25.665C84.8795 24.0179 84.434 23.0593 83.5564 22.7893C82.6789 22.5193 81.8148 22.9513 80.9643 24.0854C80.1272 25.2195 79.6952 26.7586 79.6952 28.7162C79.6952 30.0528 80.0462 31.3083 80.7483 32.5099C81.3423 33.5225 82.1793 34.3865 83.1784 34.994C84.4205 35.7501 85.7841 36.1281 87.2826 36.1281C88.6192 36.1281 89.8748 35.8041 91.0224 35.1561C92.1699 34.508 93.1015 33.6035 93.817 32.4559C94.5326 31.3083 94.8836 30.0798 94.8836 28.7702C94.8431 27.7036 94.6406 26.6911 94.249 25.746C94.1545 25.5165 94.0465 25.287 93.9385 25.071C93.331 23.9099 93.4525 22.4923 94.3841 21.5743L94.4516 21.5068C95.8016 20.1567 98.1103 20.4537 99.0148 22.1413C99.2443 22.5733 99.4604 23.0188 99.6494 23.4914C100.338 25.179 100.689 26.9476 100.689 28.7837C100.689 31.2003 100.081 33.4279 98.8798 35.4531C97.6782 37.4782 96.0447 39.0848 93.9925 40.2593C91.9404 41.4339 89.7128 42.0145 87.2962 42.0145C84.8795 42.0145 82.6384 41.4204 80.5728 40.2323C78.5071 39.0443 76.86 37.4377 75.6585 35.3991C74.4569 33.3739 73.8494 31.1463 73.8494 28.7297C73.8494 24.3959 75.2534 21.1827 78.0481 19.0766C80.8428 16.9705 83.6509 16.525 86.4726 17.7535C89.2943 18.9821 90.6983 21.6283 90.6983 25.692V30.5523C90.6983 32.1589 89.4023 33.455 87.7957 33.455L87.7822 33.4279Z" fill="black"/>
<path d="M118.496 42.4869H115.054C112.637 42.4869 110.423 41.9064 108.411 40.7318C106.4 39.5572 104.82 37.9776 103.673 35.993C102.552 34.0489 101.971 31.9158 101.944 29.5937C101.917 27.2715 102.525 24.9359 103.7 22.9108C104.874 20.8857 106.454 19.3061 108.438 18.1045C110.436 16.9164 112.637 16.3224 115.054 16.3224H118.496V22.1817H115.054C113.717 22.1817 112.489 22.5057 111.368 23.1538C110.261 23.8018 109.383 24.6929 108.749 25.7999C108.114 26.907 107.804 28.1221 107.804 29.4181C107.804 30.7142 108.114 31.9293 108.749 33.0364C109.383 34.1434 110.247 35.021 111.368 35.6555C112.475 36.29 113.704 36.6006 115.054 36.6006H118.496V42.4599V42.4869ZM115.621 42.4869V11.8131C115.621 10.4765 116.93 9.39648 118.55 9.39648C120.171 9.39648 121.48 10.4765 121.48 11.8131V42.4869H115.621Z" fill="black"/>
<path d="M68.8 4.9412L75.2804 8.10038C77.616 9.23445 78.5476 12.0696 77.346 14.3647L62.3601 7.07432C63.5752 4.73869 66.4373 3.79363 68.8 4.9547V4.9412Z" fill="black"/>
</svg>
